<svg width="48" height="44" viewBox="0 0 48 44" fill="none" xmlns="http://www.w3.org/2000/svg">
<g filter="url(#filter0_dd_1_4201)">
<rect x="5" y="1" width="37.7991" height="33.7878" rx="8" fill="#252F40"/>
</g>
<path d="M22.7176 11.789L16.3651 22.394C16.2341 22.6208 16.1648 22.8779 16.1641 23.1398C16.1633 23.4018 16.2312 23.6593 16.3609 23.8868C16.4906 24.1144 16.6776 24.304 16.9034 24.4368C17.1291 24.5697 17.3857 24.6411 17.6476 24.644H30.3526C30.6145 24.6411 30.8711 24.5697 31.0968 24.4368C31.3225 24.304 31.5096 24.1144 31.6393 23.8868C31.769 23.6593 31.8368 23.4018 31.8361 23.1398C31.8354 22.8779 31.7661 22.6208 31.6351 22.394L25.2826 11.789C25.1489 11.5685 24.9606 11.3863 24.736 11.2598C24.5113 11.1333 24.2579 11.0669 24.0001 11.0669C23.7423 11.0669 23.4888 11.1333 23.2642 11.2598C23.0395 11.3863 22.8513 11.5685 22.7176 11.789Z" stroke="white" stroke-width="2" stroke-linecap="round" stroke-linejoin="round"/>
<path d="M24 15.6439V18.6439" stroke="#A8ACB2" stroke-width="2" stroke-linecap="round" stroke-linejoin="round"/>
<path d="M24 21.6439H24.0075" stroke="white" stroke-width="2" stroke-linecap="round" stroke-linejoin="round"/>
<defs>
<filter id="filter0_dd_1_4201" x="0" y="0" width="47.7993" height="43.7877" filterUnits="userSpaceOnUse" color-interpolation-filters="sRGB">
<feFlood flood-opacity="0" result="BackgroundImageFix"/>
<feColorMatrix in="SourceAlpha" type="matrix" values="0 0 0 0 0 0 0 0 0 0 0 0 0 0 0 0 0 0 127 0" result="hardAlpha"/>
<feMorphology radius="1" operator="erode" in="SourceAlpha" result="effect1_dropShadow_1_4201"/>
<feOffset dy="2"/>
<feGaussianBlur stdDeviation="2"/>
<feColorMatrix type="matrix" values="0 0 0 0 0 0 0 0 0 0 0 0 0 0 0 0 0 0 0.07 0"/>
<feBlend mode="normal" in2="BackgroundImageFix" result="effect1_dropShadow_1_4201"/>
<feColorMatrix in="SourceAlpha" type="matrix" values="0 0 0 0 0 0 0 0 0 0 0 0 0 0 0 0 0 0 127 0" result="hardAlpha"/>
<feMorphology radius="1" operator="erode" in="SourceAlpha" result="effect2_dropShadow_1_4201"/>
<feOffset dy="4"/>
<feGaussianBlur stdDeviation="3"/>
<feColorMatrix type="matrix" values="0 0 0 0 0 0 0 0 0 0 0 0 0 0 0 0 0 0 0.12 0"/>
<feBlend mode="normal" in2="effect1_dropShadow_1_4201" result="effect2_dropShadow_1_4201"/>
<feBlend mode="normal" in="SourceGraphic" in2="effect2_dropShadow_1_4201" result="shape"/>
</filter>
</defs>
</svg>
