<svg width="46" height="43" viewBox="0 0 46 43" fill="none" xmlns="http://www.w3.org/2000/svg">
<g filter="url(#filter0_dd_1_4311)">
<rect x="5" y="1.7876" width="35.7991" height="32" rx="8" fill="#252F40"/>
</g>
<g clip-path="url(#clip0_1_4311)">
<path d="M17.158 20.5542C16.7514 20.5004 16.4183 20.4558 16.0469 20.4066C15.9319 20.7904 15.8186 21.1789 15.6982 21.565C15.5809 21.9396 15.4487 21.9919 15.1031 21.7973C14.2008 21.2881 13.3008 20.7766 12.4024 20.2619C12.0904 20.0835 12.074 19.9327 12.3297 19.6627C12.6034 19.3735 12.8833 19.0896 13.1734 18.7896C12.9466 18.4973 12.7363 18.2266 12.515 17.9412C12.135 18.1435 11.7573 18.3419 11.3828 18.545C11.1052 18.6958 10.9371 18.6066 10.8589 18.3204C10.579 17.2973 10.3014 16.2735 10.0231 15.2504C9.94643 14.9689 10.0778 14.8273 10.353 14.8204C10.7807 14.8096 11.2084 14.8173 11.6533 14.8173C11.7057 14.4335 11.7503 14.1081 11.8019 13.7304C11.4258 13.6212 11.0474 13.5119 10.6689 13.4012C10.2412 13.2766 10.1841 13.1489 10.4046 12.7689C10.8941 11.925 11.3875 11.0827 11.884 10.2427C12.1397 9.8104 12.2703 9.79732 12.655 10.1519C12.92 10.3966 13.1812 10.645 13.4533 10.8996C13.7442 10.6812 14.0194 10.4742 14.3197 10.2489C14.1242 9.89656 13.9295 9.55348 13.741 9.20579C13.5393 8.83271 13.5862 8.72117 14.0053 8.60809C14.9937 8.34117 15.9836 8.07886 16.9742 7.81963C17.341 7.72348 17.4833 7.83271 17.4934 8.20886C17.502 8.52886 17.5067 8.84963 17.4973 9.16963C17.4919 9.35886 17.5536 9.46425 17.7577 9.45886C17.771 9.45886 17.7835 9.4604 17.7968 9.46194C18.603 9.54502 18.603 9.54502 18.8367 8.73656C19.0721 7.92425 19.1018 7.91194 19.8415 8.33194C20.6297 8.77963 21.4186 9.22579 22.2036 9.67809C22.5696 9.88886 22.5923 10.0312 22.2889 10.325C22.0121 10.5935 21.7103 10.8381 21.4139 11.0981C21.6852 11.4527 21.8932 11.7258 22.1294 12.035C22.4875 11.8389 22.8448 11.6404 23.2053 11.4466C23.5579 11.2566 23.6846 11.3019 23.7933 11.6881C24.0693 12.6727 24.3398 13.6589 24.6002 14.6473C24.694 15.0035 24.5713 15.145 24.1874 15.1527C23.798 15.1604 23.4086 15.1542 22.9973 15.1542C22.9433 15.5166 22.8941 15.8535 22.8378 16.235C23.2186 16.3412 23.6025 16.4458 23.9848 16.5542C24.4008 16.6719 24.4634 16.7942 24.2569 17.1542C23.7518 18.0335 23.2389 18.9089 22.7213 19.7819C22.5062 20.1442 22.3796 20.1558 22.0559 19.8658C21.7681 19.6081 21.4866 19.3427 21.1864 19.065C20.9018 19.2773 20.625 19.4835 20.3208 19.7096C20.5233 20.0696 20.7258 20.4219 20.9198 20.7781C21.0926 21.0966 21.0394 21.2412 20.6774 21.3412C19.6781 21.6181 18.6757 21.8842 17.6717 22.1435C17.3058 22.2381 17.1736 22.1304 17.1627 21.7458C17.1486 21.3535 17.158 20.9589 17.158 20.5542ZM23.6353 17.0673C23.2068 16.9458 22.8456 16.845 22.4851 16.7396C22.2474 16.6704 22.1599 16.5189 22.2013 16.2719C22.2725 15.8442 22.3366 15.4142 22.3804 14.9827C22.4062 14.7319 22.5141 14.6181 22.7729 14.6112C23.1591 14.6012 23.5454 14.5712 23.9676 14.5473C23.7338 13.7012 23.5118 12.8981 23.2827 12.0696C22.9191 12.2666 22.6048 12.4212 22.3069 12.6012C22.0176 12.7766 21.8393 12.6912 21.6626 12.4327C21.446 12.115 21.2106 11.8058 20.9495 11.5242C20.729 11.2866 20.7086 11.0996 20.9471 10.8704C21.2122 10.6166 21.4577 10.3442 21.7282 10.0627C20.9448 9.61809 20.209 9.19963 19.4396 8.76271C19.3254 9.15656 19.2207 9.49656 19.13 9.8404C19.0572 10.1173 18.8954 10.2035 18.6108 10.1566C18.2018 10.0889 17.7882 10.0358 17.3746 10.0073C17.0696 9.98656 16.9218 9.87502 16.9351 9.55963C16.95 9.19809 16.9383 8.83579 16.9383 8.42194C16.0109 8.66809 15.1946 8.88502 14.3556 9.10732C14.5628 9.48117 14.738 9.80886 14.9233 10.1312C15.0586 10.365 15.0077 10.5273 14.781 10.6796C14.4385 10.9096 14.0921 11.1427 13.7887 11.4189C13.5354 11.6496 13.3532 11.6296 13.1288 11.4066C12.8755 11.1558 12.6057 10.9204 12.3172 10.655C11.8676 11.4212 11.4414 12.1473 11.0028 12.8935C11.3969 13.0019 11.744 13.1058 12.0959 13.1927C12.3993 13.2673 12.479 13.4381 12.4212 13.7335C12.3453 14.1212 12.2804 14.515 12.2656 14.9081C12.2538 15.2166 12.1405 15.3619 11.8316 15.3627C11.4579 15.3627 11.0841 15.3627 10.6587 15.3627C10.9011 16.245 11.1224 17.0496 11.3531 17.8896C11.7159 17.695 12.0427 17.5396 12.3485 17.3496C12.626 17.1773 12.7887 17.2581 12.9591 17.5012C13.1945 17.8373 13.4439 18.1673 13.7191 18.4719C13.9303 18.7058 13.9334 18.8904 13.698 19.0896C13.422 19.3219 13.1476 19.5558 12.8129 19.8389C13.6879 20.3373 14.4315 20.7604 15.1954 21.195C15.3205 20.7873 15.437 20.435 15.534 20.0781C15.6004 19.8358 15.7349 19.7442 15.9898 19.7858C16.4113 19.8542 16.8343 19.9273 17.2596 19.9581C17.6131 19.9835 17.7382 20.1473 17.7249 20.4758C17.7116 20.8073 17.7217 21.1389 17.7217 21.5289C18.5959 21.2981 19.4232 21.0804 20.2841 20.8535C20.0776 20.485 19.9103 20.1673 19.725 19.8612C19.5772 19.6158 19.6147 19.4458 19.8587 19.2804C20.1996 19.0481 20.5311 18.7996 20.8447 18.5327C21.0949 18.3196 21.3068 18.3212 21.5156 18.5604C21.7517 18.8304 21.9777 19.1081 22.2506 19.4335C22.7627 18.5589 23.1881 17.8312 23.6353 17.0673Z" fill="white"/>
<path d="M28.779 25.7775C27.6195 25.7775 26.4591 25.7452 25.3003 25.7852C23.3737 25.8522 22.157 24.396 22.6911 22.3906C22.7497 22.1691 22.8271 21.9483 22.9233 21.7399C24.1408 19.0937 25.3488 16.4429 26.5967 13.8106C26.8219 13.3352 27.1456 12.856 27.546 12.5183C28.4209 11.7806 29.7721 12.0022 30.4265 12.9545C30.7667 13.4499 31.0458 13.9922 31.2999 14.5368C32.3829 16.8637 33.4627 19.1922 34.5073 21.5352C34.8388 22.2791 35.1454 23.0522 34.9249 23.9099C34.6535 24.9629 33.6558 25.7629 32.5314 25.7737C31.2812 25.7868 30.0301 25.7775 28.779 25.7775ZM28.7736 25.1737C28.7736 25.1729 28.7736 25.1722 28.7736 25.1722C30.0887 25.1722 31.4047 25.1968 32.7191 25.1629C33.4556 25.1437 34.0866 24.5845 34.3173 23.8914C34.5566 23.1737 34.3079 22.506 34.0296 21.8852C32.8544 19.2622 31.6393 16.656 30.425 14.0506C30.2748 13.7291 30.0708 13.4191 29.8354 13.1514C29.2623 12.4991 28.2849 12.4906 27.7086 13.1399C27.4647 13.4145 27.266 13.7437 27.1112 14.0776C25.8922 16.6952 24.6834 19.3168 23.4879 21.9452C23.3307 22.2906 23.2283 22.6706 23.1657 23.0445C22.9804 24.1676 23.7076 25.1137 24.8656 25.1622C26.1675 25.2168 27.4717 25.1737 28.7736 25.1737Z" fill="white"/>
<path d="M13.3208 14.8407C13.4169 12.5407 15.3248 10.9714 17.4039 11.0414C19.7989 11.123 21.48 12.9591 21.3095 15.3122C21.1469 17.5545 19.1734 19.0176 17.1216 18.923C14.937 18.823 13.2066 16.9514 13.3208 14.8407ZM17.3296 18.3476C19.2758 18.3361 20.7286 16.8584 20.7333 14.8884C20.7372 13.1153 19.1499 11.6076 17.2897 11.6191C15.3694 11.6307 13.8814 13.1561 13.8994 15.0945C13.9158 16.8476 15.5086 18.3584 17.3296 18.3476Z" fill="white"/>
<path d="M28.7815 14.513C30.3047 14.5115 30.447 14.6476 30.3196 16.1507C30.214 17.3991 30.0858 18.6468 29.9294 19.8899C29.8504 20.5207 29.35 20.8991 28.7424 20.8815C28.1513 20.8645 27.6517 20.3976 27.5883 19.7807C27.4476 18.4068 27.3115 17.0322 27.1818 15.6568C27.1122 14.9222 27.4507 14.5453 28.1959 14.5138C28.3906 14.5061 28.5861 14.513 28.7815 14.513ZM28.8113 15.0861C28.6416 15.0861 28.4727 15.0845 28.303 15.0861C27.8081 15.0922 27.7017 15.2138 27.7557 15.6938C27.8049 16.1391 27.8456 16.5853 27.8933 17.0307C27.9902 17.9338 28.0817 18.8384 28.1904 19.7399C28.2319 20.0868 28.4461 20.3199 28.812 20.3038C29.1866 20.2868 29.3422 20.0061 29.3797 19.6753C29.5158 18.4799 29.6315 17.2822 29.7722 16.0868C29.9059 14.9476 29.7488 15.0945 28.8113 15.0861Z" fill="white"/>
<path d="M28.7708 23.3446C28.1405 23.3392 27.6651 22.8684 27.6636 22.2492C27.662 21.6107 28.1429 21.1515 28.8059 21.1584C29.4033 21.1646 29.9272 21.6884 29.9139 22.2646C29.8998 22.8538 29.3752 23.3499 28.7708 23.3446ZM29.3079 22.2446C29.3064 21.9592 29.0436 21.7099 28.7575 21.7215C28.4807 21.733 28.261 21.9722 28.2656 22.2576C28.2711 22.5546 28.4861 22.7753 28.7715 22.7769C29.0749 22.7792 29.3095 22.5461 29.3079 22.2446Z" fill="white"/>
<path d="M17.2891 17.5784C15.7526 17.5568 14.6603 16.4007 14.683 14.8191C14.7025 13.4822 15.9379 12.3707 17.3837 12.3891C18.8412 12.4076 19.971 13.5838 19.9569 15.0684C19.9452 16.443 18.7176 17.5984 17.2891 17.5784ZM19.3744 15.0122C19.3924 13.9291 18.5878 12.9899 17.3094 12.9584C16.2093 12.9315 15.2741 13.8668 15.2671 14.9145C15.2592 16.0999 16.1553 17.0145 17.325 17.0168C18.4088 17.0184 19.3744 16.0738 19.3744 15.0122Z" fill="white"/>
</g>
<defs>
<filter id="filter0_dd_1_4311" x="0" y="0.787598" width="45.7993" height="42" filterUnits="userSpaceOnUse" color-interpolation-filters="sRGB">
<feFlood flood-opacity="0" result="BackgroundImageFix"/>
<feColorMatrix in="SourceAlpha" type="matrix" values="0 0 0 0 0 0 0 0 0 0 0 0 0 0 0 0 0 0 127 0" result="hardAlpha"/>
<feMorphology radius="1" operator="erode" in="SourceAlpha" result="effect1_dropShadow_1_4311"/>
<feOffset dy="2"/>
<feGaussianBlur stdDeviation="2"/>
<feColorMatrix type="matrix" values="0 0 0 0 0 0 0 0 0 0 0 0 0 0 0 0 0 0 0.07 0"/>
<feBlend mode="normal" in2="BackgroundImageFix" result="effect1_dropShadow_1_4311"/>
<feColorMatrix in="SourceAlpha" type="matrix" values="0 0 0 0 0 0 0 0 0 0 0 0 0 0 0 0 0 0 127 0" result="hardAlpha"/>
<feMorphology radius="1" operator="erode" in="SourceAlpha" result="effect2_dropShadow_1_4311"/>
<feOffset dy="4"/>
<feGaussianBlur stdDeviation="3"/>
<feColorMatrix type="matrix" values="0 0 0 0 0 0 0 0 0 0 0 0 0 0 0 0 0 0 0.12 0"/>
<feBlend mode="normal" in2="effect1_dropShadow_1_4311" result="effect2_dropShadow_1_4311"/>
<feBlend mode="normal" in="SourceGraphic" in2="effect2_dropShadow_1_4311" result="shape"/>
</filter>
<clipPath id="clip0_1_4311">
<rect width="25" height="18" fill="white" transform="translate(10 7.7876)"/>
</clipPath>
</defs>
</svg>
