<svg width="24" height="24" viewBox="0 0 24 24" fill="none" xmlns="http://www.w3.org/2000/svg">
<path fill-rule="evenodd" clip-rule="evenodd" d="M8 1C7.44772 1 7 1.44772 7 2V3.03473C3.91802 3.31951 2 5.34053 2 8.53697V17.3799C2 20.8785 4.24009 23 7.77096 23H16.229C19.7632 23 22 20.9131 22 17.4538V8.53697C22.01 5.33654 20.0939 3.31474 17 3.03373V2C17 1.44772 16.5523 1 16 1C15.4477 1 15 1.44772 15 2V3H9V2C9 1.44772 8.55228 1 8 1ZM7 5.04437V6C7 6.55228 7.44772 7 8 7C8.55228 7 9 6.55228 9 6V5H15V6C15 6.55228 15.4477 7 16 7C16.5523 7 17 6.55228 17 6V5.04296C18.9694 5.27744 20.0065 6.46856 20 8.53385V9H20H4V8.53697C4 6.47611 5.04021 5.28257 7 5.04437ZM4 11L4 17.3799C4 19.7489 5.32107 21 7.77096 21H16.229C18.6885 21 20 19.7763 20 17.4538L20 11H20H4ZM9 14C9 14.5523 8.55228 15 8 15C7.44772 15 7 14.5523 7 14C7 13.4477 7.44772 13 8 13C8.55228 13 9 13.4477 9 14ZM12 15C12.5523 15 13 14.5523 13 14C13 13.4477 12.5523 13 12 13C11.4477 13 11 13.4477 11 14C11 14.5523 11.4477 15 12 15ZM17 14C17 14.5523 16.5523 15 16 15C15.4477 15 15 14.5523 15 14C15 13.4477 15.4477 13 16 13C16.5523 13 17 13.4477 17 14ZM8 19C8.55228 19 9 18.5523 9 18C9 17.4477 8.55228 17 8 17C7.44772 17 7 17.4477 7 18C7 18.5523 7.44772 19 8 19ZM13 18C13 18.5523 12.5523 19 12 19C11.4477 19 11 18.5523 11 18C11 17.4477 11.4477 17 12 17C12.5523 17 13 17.4477 13 18ZM16 19C16.5523 19 17 18.5523 17 18C17 17.4477 16.5523 17 16 17C15.4477 17 15 17.4477 15 18C15 18.5523 15.4477 19 16 19Z" fill="black"/>
</svg>
