<svg width="17" height="17" viewBox="0 0 17 17" fill="none" xmlns="http://www.w3.org/2000/svg">
<path d="M3.13083 14.5768C2.93213 14.5765 2.74271 14.4927 2.60879 14.3459C2.47239 14.2003 2.40462 14.0034 2.4225 13.8048L2.59604 11.8965L10.613 3.88242L13.1183 6.38709L5.10354 14.4005L3.19529 14.574C3.17333 14.5761 3.15137 14.5768 3.13083 14.5768ZM13.6184 5.88629L11.1137 3.38163L12.6161 1.87925C12.749 1.74624 12.9293 1.67151 13.1173 1.67151C13.3053 1.67151 13.4856 1.74624 13.6184 1.87925L15.1208 3.38163C15.2538 3.51449 15.3285 3.69478 15.3285 3.88277C15.3285 4.07077 15.2538 4.25106 15.1208 4.38392L13.6191 5.88559L13.6184 5.88629Z" fill="#2E3A59"/>
</svg>
