<svg width="18" height="18" viewBox="0 0 18 18" fill="none" xmlns="http://www.w3.org/2000/svg">
<path d="M15 2.25H3C2.58525 2.25 2.25 2.58525 2.25 3V4.9425C2.25 5.33475 2.40975 5.72025 2.68725 5.99775L6.75 10.0605V15.75C6.75 16.0103 6.885 16.251 7.10625 16.3882C7.22625 16.4625 7.36275 16.5 7.5 16.5C7.61475 16.5 7.7295 16.4738 7.83525 16.4213L10.8352 14.9213C11.0895 14.7938 11.25 14.5343 11.25 14.25V10.0605L15.3127 5.99775C15.5902 5.72025 15.75 5.33475 15.75 4.9425V3C15.75 2.58525 15.4147 2.25 15 2.25ZM9.96975 9.21975C9.82875 9.36 9.75 9.5505 9.75 9.75V13.7865L8.25 14.5365V9.75C8.25 9.5505 8.17125 9.36 8.03025 9.21975L3.75 4.9425V3.75H14.2507L14.2523 4.93725L9.96975 9.21975Z" fill="white"/>
</svg>
