<svg width="24" height="24" viewBox="0 0 24 24" fill="none" xmlns="http://www.w3.org/2000/svg">
<path d="M20 19.9999H4C2.93052 20.0319 2.03642 19.1933 2 18.1239V5.87494C2.03641 4.80575 2.93068 3.96737 4 3.99994H20C21.0693 3.96737 21.9636 4.80575 22 5.87494V18.1249C21.963 19.1939 21.0691 20.032 20 19.9999ZM4 5.99994V17.9889L20 17.9999V6.01094L4 5.99994ZM13.43 15.9999H6C6.07353 15.172 6.46534 14.4049 7.093 13.8599C7.79183 13.1667 8.73081 12.7691 9.715 12.7499C10.6992 12.7691 11.6382 13.1667 12.337 13.8599C12.9645 14.405 13.3563 15.1721 13.43 15.9999ZM18 14.9999H15V12.9999H18V14.9999ZM9.715 11.9999C9.17907 12.0186 8.65947 11.8138 8.28029 11.4347C7.9011 11.0555 7.69638 10.5359 7.715 9.99994C7.69668 9.4641 7.9015 8.94468 8.28062 8.56556C8.65974 8.18644 9.17916 7.98162 9.715 7.99994C10.2508 7.98162 10.7703 8.18644 11.1494 8.56556C11.5285 8.94468 11.7333 9.4641 11.715 9.99994C11.7336 10.5359 11.5289 11.0555 11.1497 11.4347C10.7705 11.8138 10.2509 12.0186 9.715 11.9999ZM18 10.9999H14V8.99994H18V10.9999Z" fill="#2E3A59"/>
</svg>
