<svg width="46" height="43" viewBox="0 0 46 43" fill="none" xmlns="http://www.w3.org/2000/svg">
<g filter="url(#filter0_dd_98_698)">
<rect x="5" y="1.7876" width="35.7991" height="32" rx="8" fill="#252F40"/>
</g>
<path d="M22 27.7876C27.5228 27.7876 32 23.3104 32 17.7876C32 12.2648 27.5228 7.7876 22 7.7876C16.4772 7.7876 12 12.2648 12 17.7876C12 23.3104 16.4772 27.7876 22 27.7876Z" stroke="white" stroke-width="2" stroke-linecap="round" stroke-linejoin="round"/>
<path d="M12 17.7876H32" stroke="white" stroke-width="2" stroke-linecap="round" stroke-linejoin="round"/>
<path d="M22 7.7876C24.5013 10.526 25.9228 14.0796 26 17.7876C25.9228 21.4956 24.5013 25.0492 22 27.7876C19.4987 25.0492 18.0772 21.4956 18 17.7876C18.0772 14.0796 19.4987 10.526 22 7.7876Z" stroke="white" stroke-width="2" stroke-linecap="round" stroke-linejoin="round"/>
<defs>
<filter id="filter0_dd_98_698" x="0" y="0.787598" width="45.7993" height="42" filterUnits="userSpaceOnUse" color-interpolation-filters="sRGB">
<feFlood flood-opacity="0" result="BackgroundImageFix"/>
<feColorMatrix in="SourceAlpha" type="matrix" values="0 0 0 0 0 0 0 0 0 0 0 0 0 0 0 0 0 0 127 0" result="hardAlpha"/>
<feMorphology radius="1" operator="erode" in="SourceAlpha" result="effect1_dropShadow_98_698"/>
<feOffset dy="2"/>
<feGaussianBlur stdDeviation="2"/>
<feColorMatrix type="matrix" values="0 0 0 0 0 0 0 0 0 0 0 0 0 0 0 0 0 0 0.07 0"/>
<feBlend mode="normal" in2="BackgroundImageFix" result="effect1_dropShadow_98_698"/>
<feColorMatrix in="SourceAlpha" type="matrix" values="0 0 0 0 0 0 0 0 0 0 0 0 0 0 0 0 0 0 127 0" result="hardAlpha"/>
<feMorphology radius="1" operator="erode" in="SourceAlpha" result="effect2_dropShadow_98_698"/>
<feOffset dy="4"/>
<feGaussianBlur stdDeviation="3"/>
<feColorMatrix type="matrix" values="0 0 0 0 0 0 0 0 0 0 0 0 0 0 0 0 0 0 0.12 0"/>
<feBlend mode="normal" in2="effect1_dropShadow_98_698" result="effect2_dropShadow_98_698"/>
<feBlend mode="normal" in="SourceGraphic" in2="effect2_dropShadow_98_698" result="shape"/>
</filter>
</defs>
</svg>
