<svg width="46" height="43" viewBox="0 0 46 43" fill="none" xmlns="http://www.w3.org/2000/svg">
<g filter="url(#filter0_dd_1_4323)">
<rect x="5" y="1.7876" width="35.7991" height="32" rx="8" fill="#252F40"/>
</g>
<g clip-path="url(#clip0_1_4323)">
<path d="M31.3281 17.7246C31.8922 18.5074 32.2726 19.3769 32.3823 20.3547C32.4129 20.6312 32.4058 20.9255 32.3481 21.1968C32.1907 21.9381 31.489 22.282 30.64 21.9907C30.0032 21.772 29.3963 21.4599 28.7673 21.1857C28.1697 22.0567 27.7794 22.0671 27.2587 21.1582C26.9916 21.2983 26.7287 21.4577 26.4502 21.5778C26.0677 21.7424 25.6823 21.9114 25.2827 22.0174C24.2385 22.2946 23.5255 21.6126 23.6523 20.4948C23.7691 19.4666 24.1295 18.5422 24.7378 17.7164C24.2869 16.8943 24.1423 16.0218 24.3283 15.1049C24.4351 14.5778 24.7122 14.1694 25.2514 14.0463C25.7657 13.9292 26.1546 14.1857 26.4488 14.5897C26.6326 14.8424 26.7487 15.1471 26.9168 15.414C27.0379 15.606 27.1953 15.7735 27.3947 15.9247C27.1639 15.4436 27.3092 15.0804 27.5707 14.6875C27.6804 14.5229 27.6262 14.222 27.6013 13.9885C27.5913 13.8936 27.4702 13.7728 27.3762 13.7424C27.3214 13.7246 27.2266 13.8743 27.1383 13.9262C27.0457 13.9803 26.9182 14.0619 26.8441 14.0307C26.7764 14.0026 26.7159 13.8343 26.7287 13.7387C26.79 13.2709 27.3698 13.0878 27.768 13.4051C27.8599 13.4785 27.929 13.5815 28.0123 13.6742C28.1654 13.5511 28.3058 13.3984 28.4767 13.308C28.8606 13.1056 29.3614 13.4043 29.3301 13.8054C29.3236 13.8891 29.2588 14.0241 29.2047 14.0337C29.1221 14.0478 29.0188 13.984 28.9354 13.9336C28.845 13.878 28.7296 13.7246 28.6925 13.7453C28.5907 13.8017 28.466 13.9218 28.4568 14.0263C28.4361 14.2576 28.4133 14.5333 28.5123 14.7238C28.8165 15.3124 28.8386 15.2998 28.716 15.9403C28.8464 15.7891 28.9974 15.6527 29.1028 15.4844C29.283 15.196 29.4041 14.8647 29.605 14.5949C29.8985 14.2005 30.2817 13.9158 30.7995 14.0456C31.3423 14.1812 31.6279 14.5949 31.7376 15.139C31.9186 16.0463 31.7633 16.9032 31.3281 17.7246ZM28.9183 16.4525C28.9532 17.5052 29.1349 18.5963 28.9817 19.6349C28.8386 20.6067 29.2367 20.9566 29.9512 21.2249C30.2845 21.3502 30.6151 21.4933 30.9591 21.5763C31.5603 21.7216 31.9236 21.4132 31.9414 20.7646C31.9478 20.5326 31.93 20.2931 31.8787 20.0685C31.717 19.3613 31.4777 18.6875 31.0225 18.1249C30.6663 18.3087 30.3394 18.4562 30.0367 18.1419C29.8408 17.9381 29.8158 17.6823 29.9704 17.431C30.1407 17.1545 30.4348 17.1219 30.9669 17.3087C31.3708 16.7913 31.4727 15.4333 31.15 14.8758C30.9064 14.4555 30.5153 14.3547 30.1677 14.6927C29.9334 14.921 29.7909 15.2494 29.5972 15.5259C29.3728 15.8432 29.1384 16.1523 28.9183 16.4525ZM25.0413 17.2494C25.3248 17.2168 25.5356 17.153 25.7365 17.1782C26.0086 17.2123 26.1867 17.4043 26.1938 17.7053C26.2009 18.0033 26.0855 18.2539 25.7821 18.305C25.6076 18.3347 25.4181 18.2576 25.235 18.2516C25.1267 18.2487 24.9579 18.2524 24.9173 18.3191C24.4636 19.07 24.1381 19.8751 24.1309 20.778C24.1267 21.3576 24.4194 21.6097 24.9679 21.557C25.6987 21.4866 26.3213 21.1249 26.9296 20.7401C26.9994 20.6957 27.0179 20.5111 27.0101 20.3954C26.9823 19.9907 26.8769 19.5845 26.9011 19.1849C26.9559 18.2665 27.0699 17.3525 27.1647 16.3873C26.7743 16.2539 26.5806 15.8469 26.3811 15.4355C26.27 15.2072 26.1453 14.9729 25.9772 14.7906C25.5762 14.3547 25.0277 14.4622 24.8589 15.0374C24.6338 15.8009 24.7044 16.5637 25.0413 17.2494ZM28.4667 20.2635C28.4803 20.2205 28.5081 20.1634 28.5159 20.1034C28.6655 19.0063 28.6185 17.9129 28.409 16.8306C28.3521 16.537 28.2075 16.262 28.1028 15.9788C28.0422 15.9848 27.9817 15.9914 27.9218 15.9974C27.3734 17.3932 27.2893 18.8461 27.4702 20.3117C27.8321 20.2946 28.1305 20.2798 28.4667 20.2635ZM28.0415 14.8995C27.6433 15.3191 27.6433 15.3295 28.0322 15.8632C28.4041 15.3539 28.4041 15.3539 28.0415 14.8995ZM27.691 20.7891C27.6732 20.8365 27.6561 20.884 27.6383 20.9307C27.7673 21.0722 27.8969 21.2138 28.0258 21.3562C28.1163 21.2546 28.226 21.1642 28.2901 21.047C28.3236 20.9855 28.283 20.8024 28.2644 20.8002C28.0743 20.7817 27.8827 20.7891 27.691 20.7891Z" fill="white"/>
<path d="M17.6312 15.812C17.52 15.9707 17.4039 16.1382 17.2679 16.3324C17.5115 16.543 17.7444 16.7505 17.9838 16.9499C18.4774 17.3606 18.4788 17.3584 18.2779 17.8387C18.3492 18.0411 18.476 18.2242 18.4318 18.3057C18.2673 18.6074 18.0372 18.3628 17.8399 18.3146C17.6618 18.2709 17.5877 18.1427 17.6903 17.9492C17.7644 17.8098 17.8285 17.6653 17.9097 17.497C17.6447 17.2702 17.3776 17.0478 17.1176 16.8172C16.75 16.4918 16.733 16.3295 17.0051 15.9054C17.0969 15.7631 17.1881 15.62 17.2772 15.4822C17.0592 15.1701 16.8669 14.8595 16.6361 14.583C16.5563 14.4874 16.3825 14.4762 16.2514 14.4266C16.2251 14.4659 16.198 14.5044 16.1717 14.5437C16.3148 14.8031 16.4829 15.0515 16.5905 15.3258C16.6453 15.4666 16.6382 15.6742 16.5777 15.8143C16.4772 16.047 16.3277 16.2642 16.166 16.4577C16.0933 16.5444 15.9394 16.5585 15.8226 16.606C15.8105 16.4777 15.75 16.325 15.7956 16.2249C15.9017 15.9937 16.0584 15.7868 16.1987 15.5645C16.0349 15.2509 15.8796 14.9321 15.7051 14.626C15.5363 14.3332 15.6075 14.1716 15.9202 14.0952C16.057 14.0619 16.1873 14.0026 16.3234 13.9551C16.2757 13.7757 16.2315 13.6112 16.1909 13.4592C16.1652 13.4458 16.1546 13.4355 16.1453 13.4362C15.418 13.5029 15.4152 13.5044 15.0911 12.8365C14.9301 12.5044 14.772 12.1916 14.3247 12.3806C14.2662 12.4051 14.1736 12.3925 14.1174 12.3591C14.0027 12.2902 13.9015 12.196 13.7954 12.1123C13.9151 12.0441 14.0283 11.9566 14.1558 11.9136C14.2527 11.881 14.3859 11.9418 14.4707 11.8958C14.9144 11.6556 15.1167 11.9232 15.2912 12.2842C15.376 12.4599 15.4921 12.6208 15.5648 12.8009C15.6652 13.0493 15.8005 13.0774 16.0192 12.9143C15.7079 12.5756 15.7614 12.176 15.8269 11.7705C15.8768 11.4666 15.8739 11.2457 15.4622 11.1908C15.2271 11.1597 15.0099 10.9047 14.8104 10.7209C14.757 10.6712 14.799 10.5103 14.7976 10.4006C14.9137 10.4095 15.0498 10.3821 15.1417 10.4362C15.3048 10.5304 15.4408 10.6742 15.6438 10.8439C15.8034 10.2116 16.1104 9.84095 16.6318 9.6749C16.8334 9.61115 16.7914 9.454 16.6824 9.3265C16.5727 9.19751 16.4245 9.09966 16.3355 8.95882C16.2835 8.87653 16.3127 8.73865 16.3056 8.62524C16.4138 8.62375 16.5584 8.57409 16.624 8.6282C16.9196 8.87357 17.2138 9.13376 17.2187 9.56742C17.5015 9.63265 17.7715 9.67565 18.0286 9.76015C18.2815 9.84318 18.5215 9.9692 18.8015 10.0923C18.825 9.9855 18.8549 9.85059 18.8834 9.72086C18.5572 9.5222 18.2509 9.33762 17.9467 9.15007C17.8855 9.11226 17.7772 9.06482 17.7786 9.02553C17.7943 8.61264 17.8285 8.20122 17.857 7.78906C17.9809 7.8328 18.1896 7.84985 18.2117 7.92546C18.2673 8.11745 18.2231 8.33762 18.2502 8.54221C18.2665 8.66378 18.3114 8.81871 18.3962 8.88395C18.575 9.02109 18.7787 9.13895 18.9895 9.2116C19.3457 9.33391 19.4589 9.54666 19.3193 9.90841C19.298 9.96327 19.2908 10.0233 19.2709 10.11C19.4525 10.1575 19.6206 10.2012 19.7838 10.2435C20.0993 9.49181 19.9903 9.47253 20.7625 9.901C20.7731 9.90693 20.786 9.90915 20.7945 9.91656C21.1514 10.262 21.4968 10.2301 21.8352 9.88469C21.8765 9.84244 21.9328 9.79203 21.9841 9.7898C22.0873 9.78536 22.1921 9.8113 22.296 9.82539C22.2761 9.94251 22.2968 10.11 22.2298 10.1686C22.0047 10.3665 21.7568 10.5422 21.499 10.6912C21.4099 10.7431 21.2475 10.732 21.1507 10.6823C20.8779 10.5422 20.6221 10.3673 20.3593 10.2057C20.3258 10.2294 20.2923 10.2539 20.2581 10.2776C20.303 10.3688 20.3272 10.4837 20.3963 10.5452C20.5295 10.6645 20.709 10.732 20.8316 10.861C21.1564 11.2027 21.4605 11.3435 21.8587 10.9536C22.0674 10.749 22.2854 10.9084 22.4421 11.0967C22.628 11.3198 22.8011 11.5556 22.972 11.7913C23.1066 11.9759 23.2356 12.0218 23.4464 11.8854C23.5632 11.8098 23.8325 11.7683 23.8752 11.8306C23.9928 11.9988 24.0369 12.2286 24.0832 12.4399C24.0918 12.477 23.9579 12.6 23.9144 12.5874C23.7933 12.5533 23.685 12.4696 23.5248 12.3791C23.4984 12.394 23.4122 12.4318 23.3381 12.4859C23.1529 12.62 23.0197 12.5682 22.8865 12.3917C22.6237 12.0448 22.3466 11.7105 22.0645 11.3569C21.9214 11.4599 21.7989 11.5481 21.655 11.6527C22.2113 12.3339 22.5952 13.0752 22.7826 13.9188C22.9564 14.7031 22.8353 15.4681 22.5838 16.2057C22.467 16.5489 22.175 16.7587 21.8202 16.8691C20.3094 17.3391 18.9952 16.9344 17.8107 15.9225C17.7829 15.8988 17.7565 15.8736 17.7273 15.8536C17.7109 15.8387 17.6867 15.8335 17.6312 15.812ZM20.6948 16.5852C20.9776 16.5229 21.3886 16.457 21.7811 16.3317C21.9292 16.2842 22.1087 16.1204 22.15 15.9722C22.264 15.5607 22.3737 15.1301 22.3758 14.7068C22.3829 13.1256 21.1044 11.2805 19.6541 10.7357C19.2709 10.5919 18.8727 10.4762 18.5678 10.9218C18.5237 10.987 18.4361 11.0337 18.3591 11.0582C17.9895 11.1775 17.8263 11.477 17.7017 11.8246C17.5314 12.2991 17.2544 12.6838 16.8355 12.964C16.7408 13.027 16.6624 13.2272 16.6817 13.3458C16.7978 14.0544 17.1952 14.6089 17.6589 15.1137C18.4503 15.9766 19.3991 16.5059 20.6948 16.5852ZM18.3499 10.4755C18.0286 10.0915 16.9538 9.93361 16.515 10.242C16.2671 10.4169 16.1197 10.6482 16.1674 10.9929C16.2172 11.3524 16.2237 11.7186 16.2607 12.0811C16.2757 12.2309 16.3205 12.3776 16.3519 12.5252C16.5079 12.4644 16.7216 12.4496 16.8085 12.3324C17.0229 12.0448 17.1952 11.7186 17.3548 11.3925C17.5222 11.0507 17.7252 10.7653 18.0885 10.6327C18.1732 10.6008 18.248 10.5378 18.3499 10.4755Z" fill="white"/>
<path d="M15.6254 21.0671C16.0057 21.4325 16.374 21.7861 16.8185 22.2139C16.8904 21.8439 16.9417 21.5993 16.9844 21.354C17.0265 21.1108 17.1832 21.0211 17.3691 21.1293C17.6618 21.2991 17.9532 21.4918 18.1961 21.7283C18.4354 21.9618 18.5864 21.9663 18.8208 21.7253C19.0337 21.5067 19.2837 21.3058 19.5523 21.1723C19.8928 21.0033 19.9847 21.0812 20.0573 21.4607C20.078 21.5697 20.0993 21.6779 20.1179 21.7876C20.135 21.8936 20.1485 21.9996 20.1834 22.2472C20.6514 21.8187 21.0488 21.4548 21.4705 21.0686C21.3501 20.9559 21.2461 20.9047 21.2219 20.8269C21.1543 20.609 21.0488 20.3614 21.0966 20.1605C21.1279 20.0278 21.4221 19.8491 21.5546 19.8818C21.7483 19.9299 22.0582 20.1627 22.0482 20.2932C22.0012 20.8721 22.425 21.1145 22.7014 21.4644C23.5155 22.4948 23.6089 23.8751 22.96 25.0226C22.8353 25.2435 22.7099 25.2665 22.4962 25.1909C21.6116 24.878 20.88 25.2724 20.6186 26.202C20.5488 26.4511 20.4662 26.5719 20.1734 26.5148C19.5965 26.4029 19.0943 26.5497 18.7488 27.1004C18.6185 27.308 18.4532 27.2835 18.32 27.0878C17.9468 26.5393 17.4403 26.3599 16.8277 26.5237C16.4915 26.6141 16.5157 26.3399 16.4616 26.1642C16.2258 25.4051 15.6759 25.0115 14.9316 25.0908C14.8504 25.0997 14.762 25.1108 14.6929 25.1516C14.3432 25.3584 14.1644 25.1968 14.007 24.8654C13.3844 23.5541 13.7221 21.9144 14.7991 21.0093C14.9017 20.9233 14.9636 20.7335 14.9722 20.5875C14.9878 20.325 15.0313 20.1004 15.2599 19.9507C15.4922 19.7987 15.7251 19.8202 15.9103 20.0093C16.0969 20.1998 16.1297 20.4481 15.9701 20.6838C15.8882 20.8032 15.7785 20.8988 15.6254 21.0671ZM18.5408 26.5378C18.9981 26.0967 19.5402 25.9255 20.1378 25.97C20.5581 24.8158 21.6301 24.3591 22.5739 24.6772C23.2242 23.6631 22.8624 21.9811 21.9015 21.3799C21.4278 21.775 20.9812 22.176 20.5025 22.5326C20.3173 22.6705 20.1926 22.7965 20.1421 23.0337C19.9448 23.9537 19.3058 24.5245 18.5194 24.5074C17.6227 24.4889 17.0129 23.9062 16.8384 22.9136C16.8213 22.815 16.7757 22.6964 16.7045 22.6371C16.2016 22.2176 15.6895 21.8106 15.1616 21.3858C14.1993 22.0219 13.8296 23.7661 14.5127 24.6668C15.5912 24.4259 16.312 24.772 16.8484 25.772C16.8954 25.8603 17.0122 25.9648 17.0963 25.9655C17.6426 25.9663 18.1177 26.1457 18.5408 26.5378ZM19.5965 21.5852C19.3984 21.8091 19.2211 21.9529 19.1178 22.1419C18.9974 22.3621 18.8863 22.5015 18.6227 22.4125C18.5494 22.3873 18.4539 22.3925 18.3791 22.4177C18.1519 22.4941 18.0415 22.3873 17.9261 22.1924C17.8071 21.9907 17.6291 21.8269 17.4773 21.646C17.4232 21.6697 17.3698 21.6942 17.3157 21.7179C17.342 22.1864 17.3171 22.666 17.4075 23.1212C17.5158 23.6668 17.9703 23.9811 18.5024 23.9937C19.006 24.0055 19.4397 23.7009 19.6064 23.179C19.7631 22.689 19.7353 22.1901 19.5965 21.5852Z" fill="white"/>
<path d="M23.0068 27.7779C22.8764 27.7779 22.739 27.8046 22.6179 27.7698C22.5153 27.7401 22.4312 27.6393 22.3394 27.5696C22.4298 27.4866 22.5132 27.3443 22.6129 27.3294C23.197 27.2427 23.7953 27.236 24.3708 27.11C26.5355 26.6356 28.27 25.4481 29.587 23.5985C29.6647 23.4896 29.7259 23.3547 29.8271 23.2805C29.9204 23.2123 30.0579 23.2101 30.1761 23.1782C30.1733 23.3079 30.216 23.4658 30.1597 23.563C30.008 23.8261 29.8271 24.0737 29.6369 24.3087C27.9017 26.4473 25.6843 27.5859 23.0068 27.7779Z" fill="white"/>
<path d="M22.9928 8.71644C25.5079 8.91214 27.6634 9.88842 29.3608 11.8691C29.5104 12.0441 29.6799 12.2072 29.7967 12.4029C29.8537 12.4985 29.8124 12.6586 29.8153 12.7898C29.6977 12.7587 29.5453 12.7661 29.4676 12.6905C28.9071 12.1449 28.4013 11.5311 27.8044 11.0367C26.3421 9.82467 24.6468 9.2309 22.7798 9.16789C22.7086 9.16566 22.6245 9.18494 22.5697 9.15158C22.4828 9.09895 22.4158 9.00999 22.3403 8.9366C22.4158 8.86322 22.4807 8.74906 22.5683 8.72534C22.7015 8.6905 22.8503 8.71644 22.9928 8.71644Z" fill="white"/>
<path d="M14.4302 13.9521C14.7315 13.9722 14.7728 14.1152 14.6994 14.3139C14.5634 14.6816 14.4017 15.0396 14.282 15.4125C13.7976 16.9203 13.7342 18.4584 14.0078 20.0166C14.0384 20.1923 14.0818 20.3836 13.8404 20.4206C13.5946 20.4584 13.5996 20.2509 13.5697 20.0811C13.2114 18.0708 13.4144 16.1301 14.2336 14.2657C14.287 14.1441 14.376 14.0374 14.4302 13.9521Z" fill="white"/>
</g>
<defs>
<filter id="filter0_dd_1_4323" x="0" y="0.787598" width="45.7993" height="42" filterUnits="userSpaceOnUse" color-interpolation-filters="sRGB">
<feFlood flood-opacity="0" result="BackgroundImageFix"/>
<feColorMatrix in="SourceAlpha" type="matrix" values="0 0 0 0 0 0 0 0 0 0 0 0 0 0 0 0 0 0 127 0" result="hardAlpha"/>
<feMorphology radius="1" operator="erode" in="SourceAlpha" result="effect1_dropShadow_1_4323"/>
<feOffset dy="2"/>
<feGaussianBlur stdDeviation="2"/>
<feColorMatrix type="matrix" values="0 0 0 0 0 0 0 0 0 0 0 0 0 0 0 0 0 0 0.07 0"/>
<feBlend mode="normal" in2="BackgroundImageFix" result="effect1_dropShadow_1_4323"/>
<feColorMatrix in="SourceAlpha" type="matrix" values="0 0 0 0 0 0 0 0 0 0 0 0 0 0 0 0 0 0 127 0" result="hardAlpha"/>
<feMorphology radius="1" operator="erode" in="SourceAlpha" result="effect2_dropShadow_1_4323"/>
<feOffset dy="4"/>
<feGaussianBlur stdDeviation="3"/>
<feColorMatrix type="matrix" values="0 0 0 0 0 0 0 0 0 0 0 0 0 0 0 0 0 0 0.12 0"/>
<feBlend mode="normal" in2="effect1_dropShadow_1_4323" result="effect2_dropShadow_1_4323"/>
<feBlend mode="normal" in="SourceGraphic" in2="effect2_dropShadow_1_4323" result="shape"/>
</filter>
<clipPath id="clip0_1_4323">
<rect width="19" height="20" fill="white" transform="translate(13.3994 7.7876)"/>
</clipPath>
</defs>
</svg>
